<svg width="1584" height="396" viewBox="0 0 1584 396" fill="none" xmlns="http://www.w3.org/2000/svg">
<rect width="1584" height="396" fill="#F5F5F5"/>
<g id="Awesome banner" clip-path="url(#clip0_0_1)">
<rect width="1584" height="396" fill="url(#paint0_linear_0_1)"/>
<ellipse id="Ellipse 2" cx="323" cy="64" rx="285" ry="288" fill="url(#paint1_linear_0_1)" fill-opacity="0.1"/>
<g id="copyright">
<path d="M75.95 334.52L72.30 334.52L72.30 311.16L77.20 311.16L83.70 330.04Q83.60 329.02 83.50 327.62Q83.41 326.23 83.33 324.79Q83.25 323.35 83.25 322.23L83.25 311.16L86.90 311.16L86.90 334.52L82 334.52L75.57 315.64Q75.63 316.57 75.73 317.88Q75.82 319.19 75.89 320.57Q75.95 321.94 75.95 323.10L75.95 334.52M98.80 334.84Q96.46 334.84 94.67 333.96Q92.88 333.08 91.89 331.53Q90.90 329.98 90.90 327.93Q90.90 325.78 92.13 324.18Q93.36 322.58 95.34 322.17L95.34 322.10Q93.65 321.75 92.61 320.38Q91.57 319 91.57 317.11Q91.57 315.26 92.48 313.85Q93.39 312.44 95.02 311.64Q96.66 310.84 98.80 310.84Q100.94 310.84 102.59 311.64Q104.24 312.44 105.15 313.85Q106.06 315.26 106.06 317.11Q106.06 319 105.01 320.38Q103.95 321.75 102.26 322.10L102.26 322.17Q104.24 322.58 105.47 324.18Q106.70 325.78 106.70 327.93Q106.70 329.98 105.71 331.53Q104.72 333.08 102.93 333.96Q101.14 334.84 98.80 334.84M98.80 320.73Q100.30 320.73 101.23 319.82Q102.16 318.90 102.16 317.46Q102.16 315.99 101.23 315.08Q100.30 314.17 98.80 314.17Q97.30 314.17 96.37 315.08Q95.44 315.99 95.44 317.46Q95.44 318.90 96.37 319.82Q97.30 320.73 98.80 320.73M98.80 331.45Q100.56 331.45 101.68 330.42Q102.80 329.40 102.80 327.74Q102.80 326.04 101.68 325Q100.56 323.96 98.80 323.96Q97.04 323.96 95.92 325Q94.80 326.04 94.80 327.74Q94.80 329.40 95.92 330.42Q97.04 331.45 98.80 331.45M114.35 334.52L110.70 334.52L110.70 311.16L115.60 311.16L122.10 330.04Q122 329.02 121.90 327.62Q121.81 326.23 121.73 324.79Q121.65 323.35 121.65 322.23L121.65 311.16L125.30 311.16L125.30 334.52L120.40 334.52L113.97 315.64Q114.03 316.57 114.13 317.88Q114.22 319.19 114.29 320.57Q114.35 321.94 114.35 323.10" fill="white" fill-opacity="0.9"/>
<path d="M161.48 325.24L151.24 325.24L151.24 322.68L161.48 322.68" fill="white" fill-opacity="0.9"/>
<path d="M195.02 334.84Q191.82 334.84 189.96 333.05Q188.11 331.26 188.11 328.12L188.11 317.56Q188.11 314.42 189.96 312.63Q191.82 310.84 195.02 310.84Q198.15 310.84 200.01 312.65Q201.87 314.46 201.87 317.56L198.99 317.56Q198.99 315.58 197.95 314.50Q196.91 313.43 195.02 313.43Q193.13 313.43 192.06 314.50Q190.99 315.58 190.99 317.56L190.99 328.12Q190.99 330.10 192.06 331.18Q193.13 332.25 195.02 332.25Q196.91 332.25 197.95 331.18Q198.99 330.10 198.99 328.12L201.87 328.12Q201.87 331.22 200.01 333.03Q198.15 334.84 195.02 334.84" fill="white" fill-opacity="0.9"/>
<path d="M213.96 334.84Q210.83 334.84 209 333.02Q207.18 331.19 207.18 327.80L207.18 317.88Q207.18 314.49 209 312.66Q210.83 310.84 213.96 310.84Q217.10 310.84 218.92 312.66Q220.75 314.49 220.75 317.85L220.75 327.80Q220.75 331.19 218.92 333.02Q217.10 334.84 213.96 334.84M213.96 332.25Q215.85 332.25 216.86 331.18Q217.87 330.10 217.87 328.12L217.87 317.56Q217.87 315.58 216.86 314.50Q215.85 313.43 213.96 313.43Q212.11 313.43 211.08 314.50Q210.06 315.58 210.06 317.56L210.06 328.12Q210.06 330.10 211.08 331.18Q212.11 332.25 213.96 332.25" fill="white" fill-opacity="0.9"/>
<path d="M228.65 334.52L225.87 334.52L225.87 311.16L230.12 311.16L233.10 321.27L236.20 311.16L240.46 311.16L240.46 334.52L237.67 334.52L237.67 323.48Q237.67 321.91 237.72 319.88Q237.77 317.85 237.87 315.77Q237.96 313.69 238.09 312.02L234.31 324.09L231.82 324.09L228.20 312.31Q228.46 314.68 228.55 317.50Q228.65 320.31 228.65 323.48" fill="white" fill-opacity="0.9"/>
<path d="M247.85 334.52L245.07 334.52L245.07 311.16L249.32 311.16L252.30 321.27L255.40 311.16L259.66 311.16L259.66 334.52L256.87 334.52L256.87 323.48Q256.87 321.91 256.92 319.88Q256.97 317.85 257.07 315.77Q257.16 313.69 257.29 312.02L253.51 324.09L251.02 324.09L247.40 312.31Q247.66 314.68 247.75 317.50Q247.85 320.31 247.85 323.48" fill="white" fill-opacity="0.9"/>
<path d="M271.56 334.84Q268.30 334.84 266.57 333.03Q264.84 331.22 264.84 328.12L264.84 311.16L267.72 311.16L267.72 328.12Q267.72 330.04 268.67 331.16Q269.61 332.28 271.56 332.28Q273.48 332.28 274.44 331.16Q275.40 330.04 275.40 328.12L275.40 311.16L278.28 311.16L278.28 328.12Q278.28 331.26 276.57 333.05Q274.86 334.84 271.56 334.84" fill="white" fill-opacity="0.9"/>
<path d="M286.83 334.52L284.04 334.52L284.04 311.16L287.88 311.16L295.02 331.16Q294.95 330.36 294.87 329.19Q294.79 328.02 294.75 326.73Q294.70 325.43 294.70 324.28L294.70 311.16L297.48 311.16L297.48 334.52L293.64 334.52L286.54 314.52Q286.60 315.29 286.67 316.46Q286.73 317.62 286.78 318.92Q286.83 320.22 286.83 321.40" fill="white" fill-opacity="0.9"/>
<path d="M316.20 334.52L303.72 334.52L303.72 331.90L308.49 331.90L308.49 313.78L303.72 313.78L303.72 311.16L316.20 311.16L316.20 313.78L311.43 313.78L311.43 331.90L316.20 331.90" fill="white" fill-opacity="0.9"/>
<path d="M330.60 334.52L327.72 334.52L327.72 313.78L321.32 313.78L321.32 311.16L337 311.16L337 313.78L330.60 313.78" fill="white" fill-opacity="0.9"/>
<path d="M349.80 334.52L346.92 334.52L346.92 325.78L339.88 311.16L342.95 311.16L347.50 320.76Q347.88 321.56 348.11 322.12Q348.33 322.68 348.39 322.94Q348.46 322.68 348.70 322.12Q348.94 321.56 349.32 320.76L353.87 311.16L356.84 311.16L349.80 325.78" fill="white" fill-opacity="0.9"/>
<path d="M382.83 334.52L380.04 334.52L380.04 311.16L383.88 311.16L391.02 331.16Q390.95 330.36 390.87 329.19Q390.79 328.02 390.75 326.73Q390.70 325.43 390.70 324.28L390.70 311.16L393.48 311.16L393.48 334.52L389.64 334.52L382.54 314.52Q382.60 315.29 382.67 316.46Q382.73 317.62 382.78 318.92Q382.83 320.22 382.83 321.40" fill="white" fill-opacity="0.9"/>
<path d="M405.96 334.84Q402.83 334.84 401 333.02Q399.18 331.19 399.18 327.80L399.18 317.88Q399.18 314.49 401 312.66Q402.83 310.84 405.96 310.84Q409.10 310.84 410.92 312.66Q412.75 314.49 412.75 317.85L412.75 327.80Q412.75 331.19 410.92 333.02Q409.10 334.84 405.96 334.84M405.96 332.25Q407.85 332.25 408.86 331.18Q409.87 330.10 409.87 328.12L409.87 317.56Q409.87 315.58 408.86 314.50Q407.85 313.43 405.96 313.43Q404.11 313.43 403.08 314.50Q402.06 315.58 402.06 317.56L402.06 328.12Q402.06 330.10 403.08 331.18Q404.11 332.25 405.96 332.25" fill="white" fill-opacity="0.9"/>
<path d="M424.55 334.52L418.51 334.52L418.51 311.16L424.55 311.16Q426.83 311.16 428.47 312.02Q430.12 312.89 431.03 314.46Q431.95 316.02 431.95 318.17L431.95 327.48Q431.95 329.62 431.03 331.21Q430.12 332.79 428.47 333.66Q426.83 334.52 424.55 334.52M421.39 313.72L421.39 331.96L424.55 331.96Q426.67 331.96 427.87 330.78Q429.07 329.59 429.07 327.48L429.07 318.17Q429.07 316.09 427.87 314.90Q426.67 313.72 424.55 313.72" fill="white" fill-opacity="0.9"/>
<path d="M451.40 334.52L437.96 334.52L437.96 311.16L451.40 311.16L451.40 313.78L440.81 313.78L440.81 321.02L450.28 321.02L450.28 323.58L440.81 323.58L440.81 331.90L451.40 331.90" fill="white" fill-opacity="0.9"/>
<path d="M463.69 334.84Q460.30 334.84 458.28 333.05Q456.27 331.26 456.27 328.12L459.15 328.12Q459.15 330.07 460.39 331.18Q461.64 332.28 463.69 332.28Q465.67 332.28 466.86 331.13Q468.04 329.98 468.04 328.12Q468.04 326.71 467.29 325.67Q466.54 324.63 465.13 324.25L461.58 323.26Q459.37 322.62 458.11 320.97Q456.84 319.32 456.84 317.08Q456.84 315.22 457.67 313.82Q458.51 312.41 460.01 311.62Q461.51 310.84 463.47 310.84Q465.45 310.84 466.97 311.62Q468.49 312.41 469.35 313.80Q470.22 315.19 470.22 317.02L467.34 317.02Q467.34 315.42 466.25 314.41Q465.16 313.40 463.47 313.40Q461.77 313.40 460.71 314.41Q459.66 315.42 459.66 317.02Q459.66 318.30 460.35 319.21Q461.03 320.12 462.28 320.47L465.93 321.50Q468.27 322.14 469.56 323.91Q470.86 325.69 470.86 328.12Q470.86 331.19 468.91 333.02Q466.95 334.84 463.69 334.84" fill="white" fill-opacity="0.9"/>
</g>
<path d="M77.30 197.88Q74.75 197.88 73.24 196.54Q71.73 195.19 71.73 192.84L73.89 192.84Q73.89 194.30 74.82 195.13Q75.76 195.96 77.30 195.96Q78.78 195.96 79.67 195.10Q80.56 194.23 80.56 192.84Q80.56 191.78 80 191Q79.43 190.22 78.38 189.94L75.71 189.19Q74.06 188.71 73.11 187.48Q72.16 186.24 72.16 184.56Q72.16 183.17 72.78 182.11Q73.41 181.06 74.54 180.47Q75.66 179.88 77.13 179.88Q78.62 179.88 79.76 180.47Q80.90 181.06 81.54 182.10Q82.19 183.14 82.19 184.51L80.03 184.51Q80.03 183.31 79.22 182.56Q78.40 181.80 77.13 181.80Q75.86 181.80 75.06 182.56Q74.27 183.31 74.27 184.51Q74.27 185.47 74.79 186.16Q75.30 186.84 76.24 187.10L78.98 187.87Q80.73 188.35 81.70 189.68Q82.67 191.02 82.67 192.84Q82.67 195.14 81.21 196.51Q79.74 197.88 77.30 197.88" fill="white" fill-opacity="0.7"/>
<path d="M96.28 197.64L86.92 197.64L86.92 195.67L90.50 195.67L90.50 182.09L86.92 182.09L86.92 180.12L96.28 180.12L96.28 182.09L92.70 182.09L92.70 195.67L96.28 195.67" fill="white" fill-opacity="0.7"/>
<path d="M103.17 197.64L101.01 197.64L101.01 180.12L106.65 180.12Q109.10 180.12 110.55 181.52QNaN 182.93 NaN 185.28QNaN 187.63 110.55 189.04Q109.10 190.44 106.65 190.44L103.17 190.44L103.17 197.64M103.17 182.06L103.17 188.50L106.65 188.50Q108.06 188.50 108.92 187.62Q109.77 186.74 109.77 185.28Q109.77 183.79 108.92 182.93Q108.06 182.06 106.65 182.06" fill="white" fill-opacity="0.7"/>
<path d="M139.96 197.64L136.12 197.64Q134.49 197.64 133.50 196.69Q132.52 195.74 132.52 194.16L132.52 186.41L128.73 186.41L128.73 184.44L132.52 184.44L132.52 180.72L134.68 180.72L134.68 184.44L140.08 184.44L140.08 186.41L134.68 186.41L134.68 194.16Q134.68 194.83 135.08 195.25Q135.47 195.67 136.12 195.67L139.96 195.67" fill="white" fill-opacity="0.7"/>
<path d="M146.85 197.64L144.69 197.64L144.69 184.44L146.85 184.44L146.85 186.96L146.90 186.96Q147.06 185.69 147.98 184.94Q148.89 184.20 150.42 184.20Q152.49 184.20 153.60 185.44Q154.72 186.67 154.72 188.95L154.72 190.08L152.56 190.08L152.56 188.95Q152.56 186.07 149.75 186.07Q148.34 186.07 147.59 186.89Q146.85 187.70 146.85 189.24" fill="white" fill-opacity="0.7"/>
<path d="M163.58 197.88Q161.30 197.88 159.93 196.52Q158.56 195.17 158.56 192.84L158.56 184.44L160.72 184.44L160.72 192.84Q160.72 194.28 161.49 195.13Q162.26 195.98 163.58 195.98Q164.92 195.98 165.70 195.13Q166.48 194.28 166.48 192.84L166.48 184.44L168.64 184.44L168.64 192.84Q168.64 195.17 167.25 196.52Q165.86 197.88 163.58 197.88" fill="white" fill-opacity="0.7"/>
<path d="M175.17 197.64L173.01 197.64L173.01 184.44L175.17 184.44L175.17 186.96L175.19 186.96Q175.36 185.64 176.27 184.92Q177.18 184.20 178.70 184.20Q180.69 184.20 181.86 185.42Q183.04 186.65 183.04 188.76L183.04 197.64L180.88 197.64L180.88 189.14Q180.88 187.63 180.12 186.83Q179.37 186.02 178.07 186.02Q176.73 186.02 175.95 186.86Q175.17 187.70 175.17 189.24" fill="white" fill-opacity="0.7"/>
<path d="M189.69 197.64L187.53 197.64L187.53 180.12L189.69 180.12L189.69 189.89L192.21 189.89L195.90 184.44L198.38 184.44L194.13 190.73L198.62 197.64L196.10 197.64L192.26 191.76L189.69 191.76" fill="white" fill-opacity="0.7"/>
<path d="M212.92 197.64L201.64 197.64L201.64 195.67L206.32 195.67L206.32 186.41L202.12 186.41L202.12 184.44L208.48 184.44L208.48 195.67L212.92 195.67L212.92 197.64M207.16 182.06Q206.37 182.06 205.91 181.66Q205.46 181.25 205.46 180.55Q205.46 179.83 205.91 179.41Q206.37 178.99 207.16 178.99Q207.95 178.99 208.41 179.41Q208.86 179.83 208.86 180.55Q208.86 181.25 208.41 181.66Q207.95 182.06 207.16 182.06" fill="white" fill-opacity="0.7"/>
<path d="M218.37 197.64L216.21 197.64L216.21 184.44L218.37 184.44L218.37 186.96L218.39 186.96Q218.56 185.64 219.47 184.92Q220.38 184.20 221.90 184.20Q223.89 184.20 225.06 185.42Q226.24 186.65 226.24 188.76L226.24 197.64L224.08 197.64L224.08 189.14Q224.08 187.63 223.32 186.83Q222.57 186.02 221.27 186.02Q219.93 186.02 219.15 186.86Q218.37 187.70 218.37 189.24" fill="white" fill-opacity="0.7"/>
<path d="M235.96 201.96L232.26 201.96L232.26 199.99L235.98 199.99Q237.11 199.99 237.76 199.36Q238.41 198.72 238.41 197.64L238.41 196.44L238.46 194.28L238.38 194.28Q238.19 195.46 237.26 196.09Q236.32 196.73 234.90 196.73Q232.86 196.73 231.69 195.43Q230.51 194.14 230.51 191.88L230.51 189.10Q230.51 186.84 231.69 185.52Q232.86 184.20 234.90 184.20Q236.32 184.20 237.26 184.87Q238.19 185.54 238.38 186.72L238.43 186.72L238.43 184.44L240.57 184.44L240.57 197.64Q240.57 199.63 239.33 200.80Q238.10 201.96 235.96 201.96M235.55 194.93Q236.90 194.93 237.66 194.09Q238.43 193.25 238.43 191.76L238.43 189.24Q238.43 187.75 237.66 186.91Q236.90 186.07 235.55 186.07Q234.18 186.07 233.43 186.86Q232.67 187.66 232.67 189L232.67 192Q232.67 193.34 233.43 194.14Q234.18 194.93 235.55 194.93" fill="white" fill-opacity="0.7"/>
<path d="M250.07 201.48L247.84 201.48L249.16 194.14L251.75 194.14" fill="white" fill-opacity="0.7"/>
<path d="M278.90 197.88Q276.35 197.88 274.84 196.54Q273.33 195.19 273.33 192.84L275.49 192.84Q275.49 194.30 276.42 195.13Q277.36 195.96 278.90 195.96Q280.38 195.96 281.27 195.10Q282.16 194.23 282.16 192.84Q282.16 191.78 281.60 191Q281.03 190.22 279.98 189.94L277.31 189.19Q275.66 188.71 274.71 187.48Q273.76 186.24 273.76 184.56Q273.76 183.17 274.38 182.11Q275.01 181.06 276.14 180.47Q277.26 179.88 278.73 179.88Q280.22 179.88 281.36 180.47Q282.50 181.06 283.14 182.10Q283.79 183.14 283.79 184.51L281.63 184.51Q281.63 183.31 280.82 182.56Q280 181.80 278.73 181.80Q277.46 181.80 276.66 182.56Q275.87 183.31 275.87 184.51Q275.87 185.47 276.39 186.16Q276.90 186.84 277.84 187.10L280.58 187.87Q282.33 188.35 283.30 189.68Q284.27 191.02 284.27 192.84Q284.27 195.14 282.81 196.51Q281.34 197.88 278.90 197.88" fill="white" fill-opacity="0.7"/>
<path d="M289.82 197.64L287.73 197.64L287.73 180.12L290.92 180.12L293.15 187.70L295.48 180.12L298.67 180.12L298.67 197.64L296.58 197.64L296.58 189.36Q296.58 188.18 296.62 186.66Q296.66 185.14 296.73 183.58Q296.80 182.02 296.90 180.77L294.06 189.82L292.19 189.82L289.48 180.98Q289.67 182.76 289.74 184.87Q289.82 186.98 289.82 189.36" fill="white" fill-opacity="0.7"/>
<path d="M307.70 197.88Q305.15 197.88 303.64 196.54Q302.13 195.19 302.13 192.84L304.29 192.84Q304.29 194.30 305.22 195.13Q306.16 195.96 307.70 195.96Q309.18 195.96 310.07 195.10Q310.96 194.23 310.96 192.84Q310.96 191.78 310.40 191Q309.83 190.22 308.78 189.94L306.11 189.19Q304.46 188.71 303.51 187.48Q302.56 186.24 302.56 184.56Q302.56 183.17 303.18 182.11Q303.81 181.06 304.94 180.47Q306.06 179.88 307.53 179.88Q309.02 179.88 310.16 180.47Q311.30 181.06 311.94 182.10Q312.59 183.14 312.59 184.51L310.43 184.51Q310.43 183.31 309.62 182.56Q308.80 181.80 307.53 181.80Q306.26 181.80 305.46 182.56Q304.67 183.31 304.67 184.51Q304.67 185.47 305.19 186.16Q305.70 186.84 306.64 187.10L309.38 187.87Q311.13 188.35 312.10 189.68Q313.07 191.02 313.07 192.84Q313.07 195.14 311.61 196.51Q310.14 197.88 307.70 197.88" fill="white" fill-opacity="0.7"/>
<path d="M322.07 201.48L319.84 201.48L321.16 194.14L323.75 194.14" fill="white" fill-opacity="0.7"/>
<path d="M347.42 197.64L345.33 197.64L345.33 180.12L348.52 180.12L350.75 187.70L353.08 180.12L356.27 180.12L356.27 197.64L354.18 197.64L354.18 189.36Q354.18 188.18 354.22 186.66Q354.26 185.14 354.33 183.58Q354.40 182.02 354.50 180.77L351.66 189.82L349.79 189.82L347.08 180.98Q347.27 182.76 347.34 184.87Q347.42 186.98 347.42 189.36" fill="white" fill-opacity="0.7"/>
<path d="M361.82 197.64L359.73 197.64L359.73 180.12L362.92 180.12L365.15 187.70L367.48 180.12L370.67 180.12L370.67 197.64L368.58 197.64L368.58 189.36Q368.58 188.18 368.62 186.66Q368.66 185.14 368.73 183.58Q368.80 182.02 368.90 180.77L366.06 189.82L364.19 189.82L361.48 180.98Q361.67 182.76 361.74 184.87Q361.82 186.98 361.82 189.36" fill="white" fill-opacity="0.7"/>
<path d="M379.70 197.88Q377.15 197.88 375.64 196.54Q374.13 195.19 374.13 192.84L376.29 192.84Q376.29 194.30 377.22 195.13Q378.16 195.96 379.70 195.96Q381.18 195.96 382.07 195.10Q382.96 194.23 382.96 192.84Q382.96 191.78 382.40 191Q381.83 190.22 380.78 189.94L378.11 189.19Q376.46 188.71 375.51 187.48Q374.56 186.24 374.56 184.56Q374.56 183.17 375.18 182.11Q375.81 181.06 376.94 180.47Q378.06 179.88 379.53 179.88Q381.02 179.88 382.16 180.47Q383.30 181.06 383.94 182.10Q384.59 183.14 384.59 184.51L382.43 184.51Q382.43 183.31 381.62 182.56Q380.80 181.80 379.53 181.80Q378.26 181.80 377.46 182.56Q376.67 183.31 376.67 184.51Q376.67 185.47 377.19 186.16Q377.70 186.84 378.64 187.10L381.38 187.87Q383.13 188.35 384.10 189.68Q385.07 191.02 385.07 192.84Q385.07 195.14 383.61 196.51Q382.14 197.88 379.70 197.88" fill="white" fill-opacity="0.7"/>
<path d="M394.07 201.48L391.84 201.48L393.16 194.14L395.75 194.14" fill="white" fill-opacity="0.7"/>
<path d="M422.99 197.88Q420.59 197.88 419.20 196.54Q417.81 195.19 417.81 192.84L417.81 184.92Q417.81 182.57 419.20 181.22Q420.59 179.88 422.99 179.88Q425.34 179.88 426.74 181.24Q428.13 182.59 428.13 184.92L425.97 184.92Q425.97 183.43 425.19 182.63Q424.41 181.82 422.99 181.82Q421.58 181.82 420.77 182.63Q419.97 183.43 419.97 184.92L419.97 192.84Q419.97 194.33 420.77 195.13Q421.58 195.94 422.99 195.94Q424.41 195.94 425.19 195.13Q425.97 194.33 425.97 192.84L428.13 192.84Q428.13 195.17 426.74 196.52Q425.34 197.88 422.99 197.88" fill="white" fill-opacity="0.7"/>
<path d="M436.05 197.88Q434.01 197.88 432.81 196.74Q431.61 195.60 431.61 193.75Q431.61 192.53 432.16 191.62Q432.71 190.70 433.70 190.19Q434.68 189.67 435.95 189.67L440.03 189.67L440.03 188.64Q440.03 186.07 437.22 186.07Q435.98 186.07 435.21 186.53Q434.44 186.98 434.39 187.80L432.23 187.80Q432.35 186.24 433.68 185.22Q435.02 184.20 437.22 184.20Q439.62 184.20 440.91 185.35Q442.19 186.50 442.19 188.57L442.19 197.64L440.06 197.64L440.06 195.24L440.01 195.24Q439.82 196.46 438.78 197.17Q437.75 197.88 436.05 197.88M436.58 196.06Q438.16 196.06 439.10 195.29Q440.03 194.52 440.03 193.20L440.03 191.35L436.19 191.35Q435.14 191.35 434.48 191.99Q433.82 192.62 433.82 193.68Q433.82 194.78 434.55 195.42Q435.28 196.06 436.58 196.06" fill="white" fill-opacity="0.7"/>
<path d="M457.60 197.64L453.52 197.64Q451.77 197.64 450.72 196.62Q449.68 195.60 449.68 193.92L449.68 182.09L445.12 182.09L445.12 180.12L451.84 180.12L451.84 193.92Q451.84 194.74 452.30 195.20Q452.75 195.67 453.52 195.67L457.60 195.67" fill="white" fill-opacity="0.7"/>
<path d="M472 197.64L467.92 197.64Q466.17 197.64 465.12 196.62Q464.08 195.60 464.08 193.92L464.08 182.09L459.52 182.09L459.52 180.12L466.24 180.12L466.24 193.92Q466.24 194.74 466.70 195.20Q467.15 195.67 467.92 195.67L472 195.67" fill="white" fill-opacity="0.7"/>
<path d="M494.99 197.88Q492.59 197.88 491.20 196.54Q489.81 195.19 489.81 192.84L489.81 184.92Q489.81 182.57 491.20 181.22Q492.59 179.88 494.99 179.88Q497.34 179.88 498.74 181.24Q500.13 182.59 500.13 184.92L497.97 184.92Q497.97 183.43 497.19 182.63Q496.41 181.82 494.99 181.82Q493.58 181.82 492.77 182.63Q491.97 183.43 491.97 184.92L491.97 192.84Q491.97 194.33 492.77 195.13Q493.58 195.94 494.99 195.94Q496.41 195.94 497.19 195.13Q497.97 194.33 497.97 192.84L500.13 192.84Q500.13 195.17 498.74 196.52Q497.34 197.88 494.99 197.88" fill="white" fill-opacity="0.7"/>
<path d="M509.20 197.83Q506.82 197.83 505.42 196.44Q504.02 195.05 504.02 192.55L504.02 189.53Q504.02 187.01 505.41 185.63Q506.80 184.25 509.20 184.25Q511.60 184.25 512.99 185.63Q514.38 187.01 514.38 189.53L514.38 192.55Q514.38 195.05 512.98 196.44Q511.58 197.83 509.20 197.83M509.20 195.91Q510.62 195.91 511.42 195.12Q512.22 194.33 512.22 192.79L512.22 189.29Q512.22 187.75 511.42 186.96Q510.62 186.17 509.20 186.17Q507.81 186.17 506.99 186.96Q506.18 187.75 506.18 189.29L506.18 192.79Q506.18 194.33 506.99 195.12Q507.81 195.91 509.20 195.91" fill="white" fill-opacity="0.7"/>
<path d="M520.77 197.64L518.61 197.64L518.61 184.44L520.77 184.44L520.77 186.96L520.79 186.96Q520.96 185.64 521.87 184.92Q522.78 184.20 524.30 184.20Q526.29 184.20 527.46 185.42Q528.64 186.65 528.64 188.76L528.64 197.64L526.48 197.64L526.48 189.14Q526.48 187.63 525.72 186.83Q524.97 186.02 523.67 186.02Q522.33 186.02 521.55 186.86Q520.77 187.70 520.77 189.24" fill="white" fill-opacity="0.7"/>
<path d="M543.16 197.64L539.32 197.64Q537.69 197.64 536.70 196.69Q535.72 195.74 535.72 194.16L535.72 186.41L531.93 186.41L531.93 184.44L535.72 184.44L535.72 180.72L537.88 180.72L537.88 184.44L543.28 184.44L543.28 186.41L537.88 186.41L537.88 194.16Q537.88 194.83 538.28 195.25Q538.67 195.67 539.32 195.67L543.16 195.67" fill="white" fill-opacity="0.7"/>
<path d="M550.05 197.64L547.89 197.64L547.89 184.44L550.05 184.44L550.05 186.96L550.10 186.96Q550.26 185.69 551.18 184.94Q552.09 184.20 553.62 184.20Q555.69 184.20 556.80 185.44Q557.92 186.67 557.92 188.95L557.92 190.08L555.76 190.08L555.76 188.95Q555.76 186.07 552.95 186.07Q551.54 186.07 550.79 186.89Q550.05 187.70 550.05 189.24" fill="white" fill-opacity="0.7"/>
<path d="M566.80 197.83Q564.42 197.83 563.02 196.44Q561.62 195.05 561.62 192.55L561.62 189.53Q561.62 187.01 563.01 185.63Q564.40 184.25 566.80 184.25Q569.20 184.25 570.59 185.63Q571.98 187.01 571.98 189.53L571.98 192.55Q571.98 195.05 570.58 196.44Q569.18 197.83 566.80 197.83M566.80 195.91Q568.22 195.91 569.02 195.12Q569.82 194.33 569.82 192.79L569.82 189.29Q569.82 187.75 569.02 186.96Q568.22 186.17 566.80 186.17Q565.41 186.17 564.59 186.96Q563.78 187.75 563.78 189.29L563.78 192.79Q563.78 194.33 564.59 195.12Q565.41 195.91 566.80 195.91" fill="white" fill-opacity="0.7"/>
<path d="M587.20 197.64L583.12 197.64Q581.37 197.64 580.32 196.62Q579.28 195.60 579.28 193.92L579.28 182.09L574.72 182.09L574.72 180.12L581.44 180.12L581.44 193.92Q581.44 194.74 581.90 195.20Q582.35 195.67 583.12 195.67L587.20 195.67" fill="white" fill-opacity="0.7"/>
<path d="M608.85 197.88Q606.81 197.88 605.61 196.74Q604.41 195.60 604.41 193.75Q604.41 192.53 604.96 191.62Q605.51 190.70 606.50 190.19Q607.48 189.67 608.75 189.67L612.83 189.67L612.83 188.64Q612.83 186.07 610.02 186.07Q608.78 186.07 608.01 186.53Q607.24 186.98 607.19 187.80L605.03 187.80Q605.15 186.24 606.48 185.22Q607.82 184.20 610.02 184.20Q612.42 184.20 613.71 185.35Q614.99 186.50 614.99 188.57L614.99 197.64L612.86 197.64L612.86 195.24L612.81 195.24Q612.62 196.46 611.58 197.17Q610.55 197.88 608.85 197.88M609.38 196.06Q610.96 196.06 611.90 195.29Q612.83 194.52 612.83 193.20L612.83 191.35L608.99 191.35Q607.94 191.35 607.28 191.99Q606.62 192.62 606.62 193.68Q606.62 194.78 607.35 195.42Q608.08 196.06 609.38 196.06" fill="white" fill-opacity="0.7"/>
<path d="M621.57 197.64L619.41 197.64L619.41 184.44L621.57 184.44L621.57 186.96L621.59 186.96Q621.76 185.64 622.67 184.92Q623.58 184.20 625.10 184.20Q627.09 184.20 628.26 185.42Q629.44 186.65 629.44 188.76L629.44 197.64L627.28 197.64L627.28 189.14Q627.28 187.63 626.52 186.83Q625.77 186.02 624.47 186.02Q623.13 186.02 622.35 186.86Q621.57 187.70 621.57 189.24" fill="white" fill-opacity="0.7"/>
<path d="M638.03 197.88Q636.06 197.88 634.88 196.56Q633.69 195.24 633.69 192.98L633.69 189.12Q633.69 186.84 634.86 185.52Q636.04 184.20 638.03 184.20Q639.52 184.20 640.49 184.94Q641.46 185.69 641.66 186.96L641.68 186.96L641.63 183.96L641.63 180.12L643.79 180.12L643.79 197.64L641.63 197.64L641.63 195.12L641.61 195.12Q641.44 196.42 640.48 197.15Q639.52 197.88 638.03 197.88M638.75 196.01Q640.10 196.01 640.86 195.17Q641.63 194.33 641.63 192.84L641.63 189.24Q641.63 187.75 640.86 186.91Q640.10 186.07 638.75 186.07Q637.38 186.07 636.62 186.78Q635.85 187.49 635.85 189.12L635.85 192.96Q635.85 194.57 636.62 195.29Q637.38 196.01 638.75 196.01" fill="white" fill-opacity="0.7"/>
<path d="M668.68 197.64L666.52 197.64L666.52 182.09L661.72 182.09L661.72 180.12L673.48 180.12L673.48 182.09L668.68 182.09" fill="white" fill-opacity="0.7"/>
<path d="M682 197.88Q679.67 197.88 678.24 196.48Q676.82 195.07 676.82 192.60L676.82 189.48Q676.82 187.01 678.24 185.60Q679.67 184.20 682 184.20Q683.56 184.20 684.72 184.82Q685.89 185.45 686.54 186.58Q687.18 187.70 687.18 189.24L687.18 191.59L678.93 191.59L678.93 192.84Q678.93 194.30 679.77 195.16Q680.61 196.01 682 196.01Q683.20 196.01 683.98 195.54Q684.76 195.07 684.93 194.28L687.09 194.28Q686.87 195.94 685.48 196.91Q684.09 197.88 682 197.88M678.93 189.24L678.93 189.91L685.07 189.91L685.07 189.24Q685.07 187.68 684.27 186.83Q683.46 185.98 682 185.98Q680.54 185.98 679.73 186.83Q678.93 187.68 678.93 189.24" fill="white" fill-opacity="0.7"/>
<path d="M702.40 197.64L698.32 197.64Q696.57 197.64 695.52 196.62Q694.48 195.60 694.48 193.92L694.48 182.09L689.92 182.09L689.92 180.12L696.64 180.12L696.64 193.92Q696.64 194.74 697.10 195.20Q697.55 195.67 698.32 195.67L702.40 195.67" fill="white" fill-opacity="0.7"/>
<path d="M710.80 197.88Q708.47 197.88 707.04 196.48Q705.62 195.07 705.62 192.60L705.62 189.48Q705.62 187.01 707.04 185.60Q708.47 184.20 710.80 184.20Q712.36 184.20 713.52 184.82Q714.69 185.45 715.34 186.58Q715.98 187.70 715.98 189.24L715.98 191.59L707.73 191.59L707.73 192.84Q707.73 194.30 708.57 195.16Q709.41 196.01 710.80 196.01Q712 196.01 712.78 195.54Q713.56 195.07 713.73 194.28L715.89 194.28Q715.67 195.94 714.28 196.91Q712.89 197.88 710.80 197.88M707.73 189.24L707.73 189.91L713.87 189.91L713.87 189.24Q713.87 187.68 713.07 186.83Q712.26 185.98 710.80 185.98Q709.34 185.98 708.53 186.83Q707.73 187.68 707.73 189.24" fill="white" fill-opacity="0.7"/>
<path d="M722.37 201.96L720.21 201.96L720.21 184.44L722.37 184.44L722.37 186.96L722.39 186.96Q722.56 185.66 723.52 184.93Q724.48 184.20 725.97 184.20Q727.96 184.20 729.14 185.51Q730.31 186.82 730.31 189.10L730.31 192.96Q730.31 195.24 729.14 196.56Q727.96 197.88 725.97 197.88Q724.48 197.88 723.52 197.14Q722.56 196.39 722.39 195.12L722.32 195.12L722.37 198.12L722.37 201.96M725.25 196.01Q726.62 196.01 727.38 195.29Q728.15 194.57 728.15 192.96L728.15 189.12Q728.15 187.49 727.38 186.78Q726.62 186.07 725.25 186.07Q723.93 186.07 723.15 186.91Q722.37 187.75 722.37 189.24L722.37 192.84Q722.37 194.33 723.15 195.17Q723.93 196.01 725.25 196.01" fill="white" fill-opacity="0.7"/>
<path d="M736.77 197.64L734.61 197.64L734.61 180.12L736.77 180.12L736.77 186.96L736.79 186.96Q736.96 185.64 737.87 184.92Q738.78 184.20 740.30 184.20Q742.29 184.20 743.46 185.42Q744.64 186.65 744.64 188.76L744.64 197.64L742.48 197.64L742.48 189.12Q742.48 187.63 741.72 186.83Q740.97 186.02 739.67 186.02Q738.33 186.02 737.55 186.86Q736.77 187.70 736.77 189.24" fill="white" fill-opacity="0.7"/>
<path d="M754 197.83Q751.62 197.83 750.22 196.44Q748.82 195.05 748.82 192.55L748.82 189.53Q748.82 187.01 750.21 185.63Q751.60 184.25 754 184.25Q756.40 184.25 757.79 185.63Q759.18 187.01 759.18 189.53L759.18 192.55Q759.18 195.05 757.78 196.44Q756.38 197.83 754 197.83M754 195.91Q755.42 195.91 756.22 195.12Q757.02 194.33 757.02 192.79L757.02 189.29Q757.02 187.75 756.22 186.96Q755.42 186.17 754 186.17Q752.61 186.17 751.79 186.96Q750.98 187.75 750.98 189.29L750.98 192.79Q750.98 194.33 751.79 195.12Q752.61 195.91 754 195.91" fill="white" fill-opacity="0.7"/>
<path d="M765.57 197.64L763.41 197.64L763.41 184.44L765.57 184.44L765.57 186.96L765.59 186.96Q765.76 185.64 766.67 184.92Q767.58 184.20 769.10 184.20Q771.09 184.20 772.26 185.42Q773.44 186.65 773.44 188.76L773.44 197.64L771.28 197.64L771.28 189.14Q771.28 187.63 770.52 186.83Q769.77 186.02 768.47 186.02Q767.13 186.02 766.35 186.86Q765.57 187.70 765.57 189.24" fill="white" fill-opacity="0.7"/>
<path d="M782.13 201.96L779.87 201.96L781.82 196.82L776.90 184.44L779.22 184.44L782.34 192.60Q782.54 193.08 782.70 193.61Q782.87 194.14 782.94 194.52Q783.02 194.14 783.18 193.61Q783.35 193.08 783.52 192.60L786.42 184.44L788.70 184.44" fill="white" fill-opacity="0.7"/>
<path d="M811.14 197.64L806.61 197.64L806.61 180.12L811.14 180.12Q812.85 180.12 814.08 180.77Q815.32 181.42 816 182.59Q816.69 183.77 816.69 185.38L816.69 192.36Q816.69 193.97 816 195.16Q815.32 196.34 814.08 196.99Q812.85 197.64 811.14 197.64M808.77 182.04L808.77 195.72L811.14 195.72Q812.73 195.72 813.63 194.83Q814.53 193.94 814.53 192.36L814.53 185.38Q814.53 183.82 813.63 182.93Q812.73 182.04 811.14 182.04" fill="white" fill-opacity="0.7"/>
<path d="M824.85 197.88Q822.81 197.88 821.61 196.74Q820.41 195.60 820.41 193.75Q820.41 192.53 820.96 191.62Q821.51 190.70 822.50 190.19Q823.48 189.67 824.75 189.67L828.83 189.67L828.83 188.64Q828.83 186.07 826.02 186.07Q824.78 186.07 824.01 186.53Q823.24 186.98 823.19 187.80L821.03 187.80Q821.15 186.24 822.48 185.22Q823.82 184.20 826.02 184.20Q828.42 184.20 829.71 185.35Q830.99 186.50 830.99 188.57L830.99 197.64L828.86 197.64L828.86 195.24L828.81 195.24Q828.62 196.46 827.58 197.17Q826.55 197.88 824.85 197.88M825.38 196.06Q826.96 196.06 827.90 195.29Q828.83 194.52 828.83 193.20L828.83 191.35L824.99 191.35Q823.94 191.35 823.28 191.99Q822.62 192.62 822.62 193.68Q822.62 194.78 823.35 195.42Q824.08 196.06 825.38 196.06" fill="white" fill-opacity="0.7"/>
<path d="M845.56 197.64L841.72 197.64Q840.09 197.64 839.10 196.69Q838.12 195.74 838.12 194.16L838.12 186.41L834.33 186.41L834.33 184.44L838.12 184.44L838.12 180.72L840.28 180.72L840.28 184.44L845.68 184.44L845.68 186.41L840.28 186.41L840.28 194.16Q840.28 194.83 840.68 195.25Q841.07 195.67 841.72 195.67L845.56 195.67" fill="white" fill-opacity="0.7"/>
<path d="M853.65 197.88Q851.61 197.88 850.41 196.74Q849.21 195.60 849.21 193.75Q849.21 192.53 849.76 191.62Q850.31 190.70 851.30 190.19Q852.28 189.67 853.55 189.67L857.63 189.67L857.63 188.64Q857.63 186.07 854.82 186.07Q853.58 186.07 852.81 186.53Q852.04 186.98 851.99 187.80L849.83 187.80Q849.95 186.24 851.28 185.22Q852.62 184.20 854.82 184.20Q857.22 184.20 858.51 185.35Q859.79 186.50 859.79 188.57L859.79 197.64L857.66 197.64L857.66 195.24L857.61 195.24Q857.42 196.46 856.38 197.17Q855.35 197.88 853.65 197.88M854.18 196.06Q855.76 196.06 856.70 195.29Q857.63 194.52 857.63 193.20L857.63 191.35L853.79 191.35Q852.74 191.35 852.08 191.99Q851.42 192.62 851.42 193.68Q851.42 194.78 852.15 195.42Q852.88 196.06 854.18 196.06" fill="white" fill-opacity="0.7"/>
<path d="M883.70 197.88Q881.15 197.88 879.64 196.54Q878.13 195.19 878.13 192.84L880.29 192.84Q880.29 194.30 881.22 195.13Q882.16 195.96 883.70 195.96Q885.18 195.96 886.07 195.10Q886.96 194.23 886.96 192.84Q886.96 191.78 886.40 191Q885.83 190.22 884.78 189.94L882.11 189.19Q880.46 188.71 879.51 187.48Q878.56 186.24 878.56 184.56Q878.56 183.17 879.18 182.11Q879.81 181.06 880.94 180.47Q882.06 179.88 883.53 179.88Q885.02 179.88 886.16 180.47Q887.30 181.06 887.94 182.10Q888.59 183.14 888.59 184.51L886.43 184.51Q886.43 183.31 885.62 182.56Q884.80 181.80 883.53 181.80Q882.26 181.80 881.46 182.56Q880.67 183.31 880.67 184.51Q880.67 185.47 881.19 186.16Q881.70 186.84 882.64 187.10L885.38 187.87Q887.13 188.35 888.10 189.68Q889.07 191.02 889.07 192.84Q889.07 195.14 887.61 196.51Q886.14 197.88 883.70 197.88" fill="white" fill-opacity="0.7"/>
<path d="M898 197.88Q895.67 197.88 894.24 196.48Q892.82 195.07 892.82 192.60L892.82 189.48Q892.82 187.01 894.24 185.60Q895.67 184.20 898 184.20Q899.56 184.20 900.72 184.82Q901.89 185.45 902.54 186.58Q903.18 187.70 903.18 189.24L903.18 191.59L894.93 191.59L894.93 192.84Q894.93 194.30 895.77 195.16Q896.61 196.01 898 196.01Q899.20 196.01 899.98 195.54Q900.76 195.07 900.93 194.28L903.09 194.28Q902.87 195.94 901.48 196.91Q900.09 197.88 898 197.88M894.93 189.24L894.93 189.91L901.07 189.91L901.07 189.24Q901.07 187.68 900.27 186.83Q899.46 185.98 898 185.98Q896.54 185.98 895.73 186.83Q894.93 187.68 894.93 189.24" fill="white" fill-opacity="0.7"/>
<path d="M910.05 197.64L907.89 197.64L907.89 184.44L910.05 184.44L910.05 186.96L910.10 186.96Q910.26 185.69 911.18 184.94Q912.09 184.20 913.62 184.20Q915.69 184.20 916.80 185.44Q917.92 186.67 917.92 188.95L917.92 190.08L915.76 190.08L915.76 188.95Q915.76 186.07 912.95 186.07Q911.54 186.07 910.79 186.89Q910.05 187.70 910.05 189.24" fill="white" fill-opacity="0.7"/>
<path d="M928.22 197.64L925.38 197.64L920.90 184.44L923.22 184.44L926.10 193.32Q926.37 194.11 926.56 194.84Q926.75 195.58 926.85 195.98Q926.97 195.58 927.14 194.84Q927.30 194.11 927.54 193.32L930.42 184.44L932.70 184.44" fill="white" fill-opacity="0.7"/>
<path d="M947.32 197.64L936.04 197.64L936.04 195.67L940.72 195.67L940.72 186.41L936.52 186.41L936.52 184.44L942.88 184.44L942.88 195.67L947.32 195.67L947.32 197.64M941.56 182.06Q940.77 182.06 940.31 181.66Q939.86 181.25 939.86 180.55Q939.86 179.83 940.31 179.41Q940.77 178.99 941.56 178.99Q942.35 178.99 942.81 179.41Q943.26 179.83 943.26 180.55Q943.26 181.25 942.81 181.66Q942.35 182.06 941.56 182.06" fill="white" fill-opacity="0.7"/>
<path d="M955.79 197.88Q953.39 197.88 951.95 196.54Q950.51 195.19 950.51 192.84L950.51 189.24Q950.51 186.89 951.95 185.54Q953.39 184.20 955.79 184.20Q958.07 184.20 959.48 185.42Q960.88 186.65 960.95 188.76L958.79 188.76Q958.72 187.49 957.93 186.80Q957.14 186.12 955.79 186.12Q954.38 186.12 953.52 186.92Q952.67 187.73 952.67 189.22L952.67 192.84Q952.67 194.33 953.52 195.14Q954.38 195.96 955.79 195.96Q957.14 195.96 957.93 195.26Q958.72 194.57 958.79 193.32L960.95 193.32Q960.88 195.43 959.48 196.66Q958.07 197.88 955.79 197.88" fill="white" fill-opacity="0.7"/>
<path d="M970 197.88Q967.67 197.88 966.24 196.48Q964.82 195.07 964.82 192.60L964.82 189.48Q964.82 187.01 966.24 185.60Q967.67 184.20 970 184.20Q971.56 184.20 972.72 184.82Q973.89 185.45 974.54 186.58Q975.18 187.70 975.18 189.24L975.18 191.59L966.93 191.59L966.93 192.84Q966.93 194.30 967.77 195.16Q968.61 196.01 970 196.01Q971.20 196.01 971.98 195.54Q972.76 195.07 972.93 194.28L975.09 194.28Q974.87 195.94 973.48 196.91Q972.09 197.88 970 197.88M966.93 189.24L966.93 189.91L973.07 189.91L973.07 189.24Q973.07 187.68 972.27 186.83Q971.46 185.98 970 185.98Q968.54 185.98 967.73 186.83Q966.93 187.68 966.93 189.24" fill="white" fill-opacity="0.7"/>
<path d="M984.93 197.83L983.87 197.83Q981.66 197.83 980.45 196.84Q979.24 195.84 979.24 194.02L981.40 194.02Q981.40 194.93 982.05 195.44Q982.70 195.96 983.87 195.96L984.93 195.96Q986.13 195.96 986.79 195.43Q987.45 194.90 987.45 193.94Q987.45 192.24 985.89 192.02L982.24 191.50Q980.90 191.30 980.15 190.38Q979.41 189.46 979.41 187.94Q979.41 186.22 980.60 185.23Q981.78 184.25 983.87 184.25L984.93 184.25Q986.85 184.25 988.06 185.20Q989.27 186.14 989.37 187.68L987.18 187.68Q987.14 186.98 986.52 186.53Q985.91 186.07 984.93 186.07L983.87 186.07Q982.77 186.07 982.14 186.58Q981.52 187.08 981.52 187.94Q981.52 189.34 982.79 189.53L986.20 190.01Q989.56 190.49 989.56 193.94Q989.56 195.79 988.35 196.81Q987.14 197.83 984.93 197.83" fill="white" fill-opacity="0.7"/>
<path d="M95.60 136.06L86.10 136.06L86.10 74.62L67.09 74.62L67.09 65.98L114.51 65.98L114.51 74.62L95.60 74.62L95.60 136.06M169.71 136.06L128.91 136.06L128.91 65.98L169.71 65.98L169.71 74.52L138.32 74.52L138.32 95.36L166.35 95.36L166.35 103.61L138.32 103.61L138.32 127.52L169.71 127.52L169.71 136.06M230.19 136.06L189.49 136.06L189.49 65.98L198.99 65.98L198.99 127.42L230.19 127.42L230.19 136.06M251.98 136.06L243.06 136.06L243.06 65.98L255.34 65.98L276.27 125.12Q275.98 122.62 275.74 118.92Q275.50 115.23 275.36 111.24Q275.22 107.26 275.22 103.71L275.22 65.98L284.24 65.98L284.24 136.06L271.86 136.06L251.12 76.92Q251.31 79.42 251.50 83.02Q251.70 86.62 251.84 90.56Q251.98 94.49 251.98 97.95L251.98 136.06M326 136.06L316.50 136.06L316.50 110.04L295.47 65.98L305.55 65.98L318.51 93.63Q319.66 96.12 320.38 98.14Q321.10 100.16 321.30 101.02Q321.58 100.16 322.30 98.14Q323.02 96.12 324.27 93.63L337.14 65.98L346.93 65.98L326 110.04L326 136.06M364.02 136.06L353.55 136.06L373.52 100.44L354.61 65.98L365.46 65.98L375.82 85.95Q376.69 87.68 377.60 89.50Q378.51 91.32 378.99 92.28Q379.47 91.32 380.34 89.50Q381.20 87.68 382.06 85.95L392.53 65.98L402.99 65.98L384.08 99.96L404.05 136.06L393.30 136.06L381.78 114.56Q380.91 112.83 380.05 110.96Q379.18 109.08 378.70 107.93Q378.22 109.08 377.36 110.96Q376.50 112.83 375.54 114.46" fill="url(#paint2_linear_0_1)"/>
<g id="Group 1">
<rect id="Rectangle 1" x="26" y="168" width="12" height="184" rx="5" fill="url(#paint3_linear_0_1)" fill-opacity="0.9"/>
</g>
<g id="Group 1_2">
<rect id="Rectangle 2" x="26" y="38" width="12" height="119" rx="5" fill="url(#paint4_linear_0_1)" fill-opacity="0.9"/>
</g>
<ellipse id="Ellipse 1" cx="148.5" cy="573" rx="215.5" ry="214" fill="url(#paint5_linear_0_1)" fill-opacity="0.4"/>
<rect id="Rectangle 3" x="1229" y="48" width="300" height="300" rx="25" fill="#FFFBFB" fill-opacity="0.9"/>
<g id="placeholder-logo"><g transform="translate(1229,48) translate(0.0,60.0) scale(1.2000)"><g fill="#666666">
  <path d="m88.05,27.65c-3.15,4 -3.2,51.2 -0.05,54.35c2.75,2.75 71.7,3.15 74.45,0.45c2.85,-2.9 2.3,-53.85 -0.65,-55.9c-1.95,-1.35 -7.15,-1.55 -36.95,-1.55l-34.7,0l-2.1,2.65zm69.45,3.35c0.65,0 1,8.6 1,23.75l0,23.75l-33,0l-33,0l-0.25,-23c-0.15,-12.6 -0.1,-23.45 0.15,-24.1c0.35,-0.85 8.9,-1.05 32.25,-0.75c17.55,0.2 32.3,0.35 32.85,0.35z"/>
  <path d="m99.15,37.3c-6.85,7.35 4.25,17.35 11.4,10.25c1.35,-1.35 2.45,-3.65 2.45,-5.05c0,-6.45 -9.35,-9.95 -13.85,-5.2z"/>
  <path d="m135,42.5c-0.7,0.85 -5.25,5.15 -10.1,9.6l-8.85,8.1l-3.2,-3.2l-3.15,-3.15l-6.35,6.3c-5.55,5.5 -6.35,6.75 -6.35,10.05l0,3.8l28.5,0l28.5,0l0,-8.6l0,-8.55l-8.15,-7.7c-9.35,-8.85 -9.15,-8.7 -10.85,-6.65zm7.25,15.2c0.95,0.9 1.75,2.9 1.75,4.45c6.35,-5.05 4.75,-7.15 4.9,-11.55c0.95,0 0,0 0,0l-6.65,7.1z"/>
  <path d="m53.65,110.75c0.1,4.8 0.45,8.65 0.75,8.5c0.35,-0.15 1.3,-0.25 2.1,-0.25c1.1,0 1.5,-1.2 1.5,-4.75l0,-4.75l3.25,5c4.9,7.5 6.2,6.75 6.55,-3.75c0.25,-8.15 0.15,-8.75 -1.7,-8.75c-1.65,0 -2.05,0.8 -2.3,4.75l-0.3,4.75l-2.8,-4.75c-4.85,-8.25 -7.25,-6.9 -7.05,4z"/>
  <path d="m91,108.9c0,9.65 0.3,10.1 6.1,10.1c5.8,0 7.15,-2.65 1.65,-3.2l-3.25,-0.3l-0.3,-6.75c-0.25,-5.95 -0.55,-6.75 -2.25,-6.75c-1.75,0 -1.95,0.7 -1.95,6.9z"/>
  <path d="m151,102.45c0,0.25 1,2.15 2.25,4.2c1.2,2.1 2.45,5.8 2.75,8.25c0.65,5.9 4,6.95 4,1.25c0.05,-2.1 1.25,-5.85 2.95,-8.9l2.9,-5.25l-2.5,0c-1.8,0 -2.8,0.85 -3.75,3.1l-1.3,3.05l-1.25,-3.05c-1.1,-2.6 -6.05,-4.8 -6.05,-2.65z"/>
  <path d="m191,107.45c0,9.05 3.4,8.85 4.25,-0.2c0.45,-5 0.35,-5.25 -1.9,-5.25c-2.2,0 -2.35,0.4 -2.35,5.45z"/>
  <path d="m180.8,104.75c-1.3,5.35 0.65,13.6 3.45,14.35c2.3,0.6 2.75,0.4 2.75,-1.2c0,-1.05 -0.45,-1.9 -1,-1.9c-0.55,0 -1,-1.6 -1,-3.5c0,-1.95 0.45,-3.5 1,-3.5c0.55,0 1,-0.7 1,-1.5c0,-0.85 -0.45,-1.5 -1,-1.5c-0.55,0 -1,-0.7 -1,-1.5c0,-2.1 -3.65,-1.9 -4.2,0.25z"/>
  <path d="m71.55,106.55c-2.2,2.25 -2.05,9.7 0.3,11.8c4.5,4.1 10.15,0.75 10.15,-6.1c0,-4.85 -2,-7.25 -6,-7.25c-1.55,0 -3.55,0.7 -4.45,1.55zm6.25,5.8c0.25,3.05 0,3.65 -1.6,3.65c-2.3,0 -3.25,-2.65 -2.05,-5.85c1.25,-3.35 3.3,-2.1 3.65,2.2z"/>
  <path d="m105.75,106.1c-2.5,1.45 -2.45,9.95 0.1,12.25c4.3,3.9 10.15,0.35 10.15,-6.2c0,-6 -5.15,-9.05 -10.25,-6.05zm6.05,6.25c0.25,3.05 0,3.65 -1.6,3.65c-2.3,0 -3.25,-2.65 -2.05,-5.85c1.25,-3.35 3.3,-2.1 3.65,2.2z"/>
  <path d="m119.2,106.2c-3.8,3.8 -0.4,12.55 4.4,11.35c1.9,-0.45 2.45,-0.3 2.15,0.65c-0.25,0.7 -1.55,1.2 -2.85,1.1c-4.05,-0.3 -5.35,0.45 -3.85,2.25c0.85,1.05 2.6,1.45 5.35,1.25l4.1,-0.3l0.3,-8.75l0.3,-8.75l-4.35,0c-2.4,0 -4.9,0.55 -5.55,1.2zm6.6,4.45c0.4,2.85 -2.15,4.85 -3.75,2.95c-0.9,-1.1 -0.9,-2 -0.05,-3.6c1.35,-2.5 3.4,-2.15 3.8,0.65z"/>
  <path d="m133.55,106.55c-2.2,2.25 -2.05,9.7 0.3,11.8c4.5,4.1 10.15,0.75 10.15,-6.1c0,-4.85 -2,-7.25 -6,-7.25c-1.55,0 -3.55,0.7 -4.45,1.55zm6.25,5.8c0.25,3.05 0,3.65 -1.6,3.65c-2.3,0 -3.25,-2.65 -2.05,-5.85c1.25,-3.35 3.3,-2.1 3.65,2.2z"/>
  <path d="m167.65,106.85c-3.9,4.3 -0.75,13.15 4.7,13.15c2.4,0 5.65,-2.75 5.65,-4.85c0,-1.4 -2.65,-1.55 -3.5,-0.15c-0.95,1.55 -4.5,1.15 -4.5,-0.5c0,-1.1 1.1,-1.5 4,-1.5c3.15,0 4,-0.35 4,-1.8c0,-5.3 -6.85,-8.25 -10.35,-4.35z"/>
  <path d="m191,117.5c0,2.15 0.4,2.6 2.25,2.3c1.5,-0.2 2.25,-1 2.25,-2.3c0,-1.3 -0.75,-2.1 -2.25,-2.3c-1.85,-0.3 -2.25,0.15 -2.25,2.3z"/>
 </g></g></g>
</g>
<defs>
<linearGradient id="paint0_linear_0_1" x1="0" y1="198" x2="1584" y2="198" gradientUnits="userSpaceOnUse">
<stop stop-color="#3D052C"/>
<stop offset="1"/>
</linearGradient>
<linearGradient id="paint1_linear_0_1" x1="323" y1="-224" x2="323" y2="352" gradientUnits="userSpaceOnUse">
<stop stop-color="#28F6F2" stop-opacity="0.4"/>
<stop offset="1" stop-color="#17908E" stop-opacity="0.7"/>
</linearGradient>
<linearGradient id="paint2_linear_0_1" x1="148.5" y1="38" x2="148.5" y2="140" gradientUnits="userSpaceOnUse">
<stop stop-color="white"/>
<stop offset="1" stop-color="#999999"/>
</linearGradient>
<linearGradient id="paint3_linear_0_1" x1="38" y1="260" x2="26" y2="260" gradientUnits="userSpaceOnUse">
<stop stop-color="#D9D9D9"/>
<stop offset="1" stop-color="#737373"/>
</linearGradient>
<linearGradient id="paint4_linear_0_1" x1="38" y1="97.5" x2="26" y2="97.5" gradientUnits="userSpaceOnUse">
<stop stop-color="#D9D9D9"/>
<stop offset="1" stop-color="#737373"/>
</linearGradient>
<linearGradient id="paint5_linear_0_1" x1="27.5" y1="434.5" x2="148.5" y2="787" gradientUnits="userSpaceOnUse">
<stop stop-color="#2E21BC"/>
<stop offset="1" stop-color="#150F56"/>
</linearGradient>
<clipPath id="clip0_0_1">
<rect width="1584" height="396" fill="white"/>
</clipPath>
</defs>
</svg>
